<?xml version="1.0" encoding="UTF-8"?>
<svg id="Calque_1" xmlns="http://www.w3.org/2000/svg" version="1.1" xmlns:xlink="http://www.w3.org/1999/xlink" viewBox="0 0 595.3 595.3">
  <!-- Generator: Adobe Illustrator 29.0.1, SVG Export Plug-In . SVG Version: 2.1.0 Build 192)  -->
  <defs>
    <style>
      .st0 {
        fill: #e9ca30;
      }

      .st1 {
        fill: #ffda22;
      }

      .st2 {
        fill: #fff;
      }

      .st3 {
        isolation: isolate;
      }

      .st4 {
        display: none;
      }
    </style>
  </defs>
  <g id="Calque_11" data-name="Calque_1" class="st4">
    <image class="st3" width="474" height="266" transform="translate(61 164.3)" xlink:href="JS-1.png"/>
  </g>
  <g id="Calque_2">
    <g id="JS">
      <path d="M183.3,175.5v-6.1h15.4v23.7c.4,8-8.2,11-8.3,10h-11.5v-5.6h6.1c1.9.1,3.7-.6,5-1.9v-1.1c0,0,.5-17,.5-17v-2.1h-7.2c0,.1,0,.1,0,.1Z"/>
      <path d="M218.2,178.6h-13v4.5c-.1,0,4.7.2,8.1.2s4.6.9,4.6.9l1.5,2.5s-10.7.5-13.7,3.5c-3,3-2.5,5.3-2.5,8.7s7.6,4.1,7.6,4.1l15.1-.8v-18.7c0-4.9-7.8-5-7.8-5ZM217.8,198.5c0,0-6,.7-6.7-1-1-2.4.8-5.9.8-5.9h6.2l-.3,6.9Z"/>
      <path d="M271.6,178.6h-13l-.2,4.5s4.9.2,8.2.2,4.6.9,4.6.9l1.4,2.5s-10.7.5-13.7,3.5c-3,3-2.5,5.3-2.5,8.7s7.6,4.1,7.6,4.1l15.1-.8v-18.7c0-4.9-7.8-5-7.8-5ZM271.4,198.5c-.1,0-6,.7-6.7-1-1-2.4.8-5.9.8-5.9h6.2l-.3,6.9Z"/>
      <polygon points="229.4 177.1 235.8 177.1 242.2 192.8 247.4 177.1 254.7 177.4 246.1 203.1 238.6 202.8 229.4 177.1"/>
      <path d="M292.6,169.7c-.2.1-2.4.8-4,2.1-1.8,1.4-2.7,3.2-3,4.2-.9,2.6-1.2,3.4,0,6.5,1,2.5,3.3,4.8,5.7,5.8,2.7,1.1-2.7-1,3,1.1.4.1,7.4,1.7,8.2,2.5,1.5,1.6,1.6,2.3-.3,4.4s-6,1.1-6.8,1c-3.6-.3-7.9-2.1-9.1-2.9-1-.7-1.6-1.1-2.1-.9-1.2.5-.7,4.4,0,7.7,9.4,4.2,18.6,3.6,23-1.3.4-.5,4.1-4.7,2.9-9.4-.9-3.8-4.4-5.8-5.3-6.3-5.4-3.2-9.9-1.6-11.2-4.3-.9-1.8.2-3.3.4-3.4,1.9-1.5,5.1-1.9,9.6-1.2l6,2.8v-6.5c-2.6-.7-4.4-1.8-6.5-2.2-4.6-1-8.7-.8-10.5.4h0Z"/>
      <path d="M334.8,184.9c.5-1.8.2-4.2.3-5.1-1.3-.3.4-.5,0-.7-3.6-1.8-5.4-2.2-8.6-2.4-4.6-.2-7.9,1.7-9.3,2.8-1.1.9-2.5,2.4-3.4,4-.6,1-.8,2.5-1.1,6.1-.4,5.7,3.8,11.9,8,12.6,4.9.8,12.3,2.1,13.8-1.1,1.2-2.6.6-4,.6-5.2s-3.7,2.6-7.6,2.4c-3.3-.1-7.2-2.9-7.9-6.9-.4-2.4.4-5.1,2.3-6.9,2.5-2.4,5.7-2.2,12.7.6.1,0,.1-.2.2-.3h0Z"/>
      <path d="M354.8,177.4c-.7.6-3.5,2.8-7.7,2.8-4.1,0-7.2-2.4-8-3.1-.3,8.6-.3,17.4-.6,26h7.1c.2-6,.4-12,.5-18,2.9,0,5.7.1,8.6.2,0-2.6,0-5.2,0-7.9h0Z"/>
      <rect x="358.2" y="169.4" width="7.6" height="4.4"/>
      <rect x="358" y="177.4" width="7.9" height="25.7"/>
      <path d="M380.5,212.3h-8.5v-35.2h8.5v35.2Z"/>
      <path d="M388.1,177.4c1.3,0,5.9,1.7,7.6,5.8.8,1.8.7,3.4.5,6.3-.1,2.3-.2,4.5-1.4,6.9-2.2,4.7-6.4,6.9-7.1,6.9-6.7.1-10.2.4-11.1,0,.6-1.8,1.2-3.6,1.8-5.4.5.2,3.4,1.5,6.3,0,2.7-1.3,3.6-4,4-5.4.4-1.1,1.3-4-.2-6.9-.2-.5-3.8-2.7-5.6-2.7-5.2,0-5.9.4-6,.5.2-1.8.4-4.4.6-6.2,1.3-.6,2.9-.3,10.5,0h0Z"/>
      <rect x="401.8" y="170.3" width="7.6" height="31.6"/>
      <rect x="398.6" y="177.8" width="17.7" height="5.5"/>
      <path d="M410.3,197.4c3.6.2,5.5,0,6.2,1.1.7,1.1.2,3.8-1.5,4.3-1.1.3-1.6.3-7.3.3s-5.1-.6-5.5-1.2c-1.3-1.8,1.6-3.1,1.8-3.5,1.6.3,3.1-1.1,6.3-.9Z"/>
    </g>
    <polygon class="st0" points="206.8 220 388.1 220 372 404.2 297.6 426.2 220.9 403.9 206.8 220"/>
    <polygon class="st1" points="296.9 237 372 237 358.2 389.9 298 408.3 296.9 237"/>
    <polygon class="st2" points="304.1 257.4 359.6 257.4 356.2 278.7 326.1 278.7 325.7 314.7 355.3 314.7 353 386.7 305 398.4 304.8 375.3 336.7 364.7 338.2 335.3 305.1 339.3 304.1 257.4"/>
    <polygon class="st2" points="270 257.4 290.3 257.1 289.9 398 236.3 384.5 236.6 350.6 254.4 352.6 254.1 367.3 269.4 371.3 270 257.4"/>
  </g>
</svg>