<?xml version="1.0" encoding="UTF-8"?>
<svg id="Calque_1" xmlns="http://www.w3.org/2000/svg" version="1.1" xmlns:xlink="http://www.w3.org/1999/xlink" viewBox="0 0 56.7 56.7">
  <!-- Generator: Adobe Illustrator 29.0.1, SVG Export Plug-In . SVG Version: 2.1.0 Build 192)  -->
  <defs>
    <style>
      .st0 {
        fill: #fff;
      }

      .st1 {
        isolation: isolate;
      }

      .st2 {
        display: none;
      }
    </style>
  </defs>
  <g id="Calque_11" data-name="Calque_1" class="st2">
    <image class="st1" width="56" height="56" transform="translate(7.4 7.2) scale(.8)" xlink:href="logo_tel-1.png"/>
  </g>
  <g id="Calque_2">
    <ellipse cx="28.4" cy="27.9" rx="21" ry="20.8"/>
    <ellipse class="st0" cx="28.4" cy="28.2" rx="18.7" ry="18.5"/>
    <path d="M33,30.7c1.6.1,3.5,1.5,4.5,2.8.3.4.3.9,0,1.5,0,1-1.3,1.6-2,2-.8.4-2.3-.2-3.2-.5-3.2-1.3-6.2-3.6-8.6-6.2-3.1-2.8-7-9.8-.8-11.1.6,0,1.3,1.4,1.8,1.9.8,1,2.4,2.7,1,3.9-1,1.2.1,2.5.9,3.5.5.6,1,1.2,1.6,1.9.9,1.1,3.5,1.3,4.5.5h.2s0,0,0,0Z"/>
  </g>
</svg>