<?xml version="1.0" encoding="UTF-8"?>
<svg id="Calque_1" xmlns="http://www.w3.org/2000/svg" version="1.1" xmlns:xlink="http://www.w3.org/1999/xlink" viewBox="0 0 56.7 56.7">
  <!-- Generator: Adobe Illustrator 29.0.1, SVG Export Plug-In . SVG Version: 2.1.0 Build 192)  -->
  <defs>
    <style>
      .st0 {
        fill: #d9240c;
      }

      .st1 {
        fill: #f5e719;
      }

      .st2 {
        isolation: isolate;
      }

      .st3 {
        display: none;
      }
    </style>
  </defs>
  <g id="Calque_11" data-name="Calque_1" class="st3">
    <image class="st2" width="216" height="233" transform="translate(10.4 9.7) scale(.1)" xlink:href="logo_chinois-1.png"/>
  </g>
  <g id="Calque_2">
    <circle class="st0" cx="25.6" cy="28.5" r="18.5"/>
    <polygon class="st1" points="18.6 15.5 19.9 19.5 24.1 19.5 20.7 21.9 22 25.9 18.6 23.5 15.2 25.9 16.5 21.9 13.1 19.5 17.3 19.5 18.6 15.5"/>
    <polygon class="st1" points="28.6 14 28.5 15.3 29.8 15.8 28.5 16.1 28.4 17.5 27.7 16.3 26.4 16.7 27.3 15.7 26.5 14.6 27.8 15 28.6 14"/>
    <polygon class="st1" points="32.9 18.1 32.2 19.2 33 20.2 31.8 19.8 31.1 20.9 31 19.6 29.7 19.3 31 18.8 30.9 17.5 31.7 18.6 32.9 18.1"/>
    <polygon class="st1" points="33.2 24.2 32.2 25 32.7 26.2 31.6 25.5 30.6 26.4 30.9 25.1 29.8 24.4 31.1 24.3 31.4 23.1 31.9 24.3 33.2 24.2"/>
    <polygon class="st1" points="28.6 27 28.5 28.3 29.7 28.8 28.5 29.1 28.4 30.4 27.7 29.3 26.5 29.7 27.3 28.7 26.6 27.6 27.8 28 28.6 27"/>
  </g>
</svg>