<?xml version="1.0" encoding="UTF-8"?>
<svg id="Calque_1" xmlns="http://www.w3.org/2000/svg" version="1.1" xmlns:xlink="http://www.w3.org/1999/xlink" viewBox="0 0 56.7 56.7">
  <!-- Generator: Adobe Illustrator 29.0.1, SVG Export Plug-In . SVG Version: 2.1.0 Build 192)  -->
  <defs>
    <style>
      .st0 {
        isolation: isolate;
      }

      .st1 {
        fill: #f7f8f9;
      }

      .st2 {
        display: none;
      }
    </style>
  </defs>
  <g id="Calque_11" data-name="Calque_1" class="st2">
    <image class="st0" width="200" height="168" transform="translate(-9.1 -11.5) scale(.4)" xlink:href="logo_github-1.png"/>
  </g>
  <g id="Calque_2">
    <path d="M49.6,28.6c0,9.9-6.7,18.2-15.9,20.6-1.7.5-3.5.7-5.4.7s-3.6-.2-5.3-.7c-9.2-2.4-16-10.7-16-20.6S16.6,7.4,28.3,7.4s21.3,9.5,21.3,21.3h0Z"/>
    <path class="st1" d="M41.9,29.4c0,.3-.2,1.2-.5,2.1-.2.5-.3.8-.4.9,0,.2-.2.4-.3.6-.3.6-.6.9-1.1,1.4-.3.3-.6.7-1.1,1.1-.3.3-.6.5-1,.8-.5.3-.8.4-1.5.6-1.3.4-2.3.6-2.3.6-.8.2-1.2.2-1.2.4,0,.2.3.5.6.7.3.3.5.8.7,1.4.1.6,0,1.1,0,2.2,0,.4,0,1,0,1.6v5.3c-1.7.5-3.5.7-5.4.7s-3.6-.2-5.3-.7v-5.4c-.8.2-2.4.5-4.1,0-.4-.1-1.1-.3-1.8-.9-.6-.5-.9-1-1.1-1.3-.3-.5-.4-.9-.5-1.3-.1-.2-.2-.4-.3-.6-.1-.4-.3-.7-.5-.8-.1-.1-.2-.2-.6-.5-.2-.2-.4-.4-.6-.5-.1-.1-.3-.3-.5-.6-.3-.4-.3-.5-.3-.5,0-.3,1-.3,1.1-.4.3,0,.6,0,1.1.3.6.3,1,.7,1.2,1,.4.4.7.8.9,1,.4.6.6.9,1,1.3.3.3.6.4.8.5.3.2.7.4,1.3.5.1,0,.6.1,1.2,0,.4,0,.8-.1,1.2-.4.3-.2.5-.5.9-1,.5-.8.6-1.2.6-1.4,0-.4,0-.5-.1-.5-.2-.3-.8-.2-.9-.2-.5,0-1.4,0-2.7-.8-.4-.2-.9-.5-1.5-.8,0,0-.8-.5-1.4-1.1-1.5-1.3-2.3-3.6-2.5-4.1,0-.8-.2-2-.2-3.4,0-.9,0-1.5.2-2.1.2-.8.6-2.1,1.9-3.5,0-.4-.2-1-.3-1.7-.1-1.2,0-2,0-2.2.1-1.3.2-2,.6-2.2.4-.2.9,0,1.8.4.7.3,1.3.6,1.7.8.4.2.8.4,1.4.6.4.1.8.2,1.1.3.8-.1,1.6-.2,2.5-.3.6,0,1.2,0,1.7,0,.5,0,1.1,0,1.6,0,.5,0,1,0,1.5,0,.6,0,1.2,0,2,.2.4,0,.8.2,1.2.3.5-.3,1.1-.6,1.7-.9.6-.3,1.2-.6,1.8-.9,0,0,1.1-.7,2.1-.2.4.2.6.6.6.6.2.3.2.7.2,1.4,0,.8,0,1.2,0,1.5,0,.5,0,1.3-.1,2.3.2.3.5.7.8,1.2.5.8.8,1.3,1.1,2,.1.4.3,1.1.3,2,0,1,0,1.8-.2,2.5h0Z"/>
  </g>
</svg>