<?xml version="1.0" encoding="UTF-8"?>
<svg id="Calque_1" xmlns="http://www.w3.org/2000/svg" version="1.1" xmlns:xlink="http://www.w3.org/1999/xlink" viewBox="0 0 56.7 56.7">
  <!-- Generator: Adobe Illustrator 29.0.1, SVG Export Plug-In . SVG Version: 2.1.0 Build 192)  -->
  <defs>
    <style>
      .st0 {
        isolation: isolate;
      }

      .st1 {
        fill: #58595a;
      }

      .st2 {
        fill: #58595b;
      }

      .st3 {
        display: none;
      }

      .st4 {
        fill: #fefefe;
      }
    </style>
  </defs>
  <g id="Calque_11" data-name="Calque_1" class="st3">
    <image class="st0" width="73" height="73" transform="translate(19.8 20.4) scale(.2 .2)" xlink:href="logo_car-1.png"/>
  </g>
  <g id="Calque_2">
    <ellipse class="st2" cx="28.4" cy="28.2" rx="8.4" ry="7.8"/>
    <path class="st4" d="M24.7,23.5l-1.5,3.1-1.2,1v3.5h.9c0,0,0,1.3,0,1.3,0,.1.6.8,1,.8.6,0,1.1-.5,1-.6v-1.4h6.7v1.3c-.2,0,.4.7.9.7s1-.5.9-.6v-1.3h1.1v-3.6l-1.1-.8-1.7-3.2h-7.2c0,0,0,0,0,0Z"/>
    <polygon class="st1" points="24 26.6 32.5 26.6 31.4 24.2 25.1 24.2 24 26.6"/>
    <ellipse class="st1" cx="24" cy="28.5" rx="1" ry=".9"/>
    <ellipse class="st1" cx="32.5" cy="28.5" rx="1" ry=".9"/>
  </g>
</svg>