<?xml version="1.0" encoding="UTF-8"?>
<svg id="Calque_1" xmlns="http://www.w3.org/2000/svg" version="1.1" xmlns:xlink="http://www.w3.org/1999/xlink" viewBox="0 0 56.7 56.7">
  <!-- Generator: Adobe Illustrator 29.0.1, SVG Export Plug-In . SVG Version: 2.1.0 Build 192)  -->
  <defs>
    <style>
      .st0 {
        isolation: isolate;
      }

      .st1 {
        fill: #fdfeff;
      }

      .st2 {
        display: none;
      }

      .st3 {
        fill: #0066c7;
      }
    </style>
  </defs>
  <g id="Calque_11" class="st2">
    <image class="st0" width="225" height="225" transform="translate(75.5 70.4) scale(.2)" xlink:href="logo_linkedin-1.png"/>
  </g>
  <g id="Calque_2">
    <rect class="st3" x="6" y="7.1" width="42.5" height="42.5" rx="8.5" ry="8.5"/>
    <circle class="st1" cx="17.3" cy="18" r="3.1"/>
    <rect class="st1" x="14.8" y="23.6" width="5.3" height="17.3"/>
    <rect class="st1" x="23" y="23.6" width="5.1" height="17.3"/>
    <rect class="st1" x="34.9" y="28" width="5.1" height="12.9"/>
    <path class="st1" d="M27.8,31.2c.1,0,.2-.3.3-.4.6-1.2,1.4-2.1,2.8-2.3,2.1-.3,3.1.7,4,2.4.1.2.3.2.4.1.3-.1.7-.3,1.2-.6,1.1-.6,2.8-1.4,3.3-1.6.1,0,.2-.2.2-.3-.3-1.5-1.2-3-2.6-3.9-1.1-.8-2.6-1-4-1-2-.2-3.7.4-5,1.8-.3.4-.5.7-.5,1.4v4.6h0v-.2Z"/>
  </g>
</svg>