<?xml version="1.0" encoding="UTF-8"?>
<svg xmlns="http://www.w3.org/2000/svg" version="1.1" viewBox="0 0 56.7 56.7">
  <defs>
    <style>
      .cls-1 {
        fill: #f9f7f7;
      }

      .cls-2 {
        fill: #353535;
      }

      .cls-3 {
        fill: #fdfdfd;
      }
    </style>
  </defs>
  <!-- Generator: Adobe Illustrator 28.7.2, SVG Export Plug-In . SVG Version: 1.2.0 Build 154)  -->
  <g>
    <g id="Calque_1">
      <g id="Calque_2">
        <circle class="cls-2" cx="28.2" cy="28.2" r="21.1"/>
        <polygon class="cls-3" points="41.6 41.5 14.9 41.5 27.8 31.2 29.4 31.2 41.6 41.5"/>
        <polygon class="cls-3" points="42.2 24.2 42.2 41.5 42 40.6 42 40.7 32.1 32.8 41.2 25.8 41.1 24.8 28.8 14.8 27.6 14.8 14.9 24.2 14.9 25.4 25 32.5 14.1 40.9 14 41.5 14.1 24.2 27.7 14.1 28.9 14.1 42.2 24.2"/>
        <path class="cls-1" d="M31.3,28.4c.5,0-.4.6-1.3.9-3.2.7-7.3-.4-8.1-4.1-1.8-6.8,9.9-9.8,11.9-3.3.5,1.7,0,3.8-1.3,4.7-.9.6-2,.5-3.1.5-1.3,0-3,.2-4-.6-1.1-1-.9-3,0-4.2,1.2-1.8,4.9-1.7,5,.2,0,.8,0,1.8,0,2.6.4,2,2.2.2,2.3-1,.6-2.4-1.5-4.2-3.9-4.4-3.8-.6-6.8,3-5,6.3,1.3,2.6,4.6,2.3,6.8,2.3h.6,0Z"/>
        <path class="cls-2" d="M28.1,22.2c-1.7-.3-3.5,2.9-1.6,3.9,2,.9,4.3-2.7,2.2-3.8h-.6Z"/>
      </g>
    </g>
  </g>
</svg>