<?xml version="1.0" encoding="UTF-8"?>
<svg xmlns="http://www.w3.org/2000/svg" version="1.1" viewBox="0 0 56.7 56.7">
  <defs>
    <style>
      .cls-1 {
        fill: #fff;
      }

      .cls-2 {
        fill: #353535;
      }
    </style>
  </defs>
  <!-- Generator: Adobe Illustrator 28.7.2, SVG Export Plug-In . SVG Version: 1.2.0 Build 154)  -->
  <g>
    <g id="Calque_1">
      <g id="Maison">
        <path class="cls-2" d="M28.4,7c-11.7,0-21.2,9.6-21.2,21.2s9.6,21.2,21.2,21.2,21.2-9.6,21.2-21.2S40,7,28.4,7ZM39.3,27.8h-2.4v9.2h-5.3v-7.7h-5.1v7.7h-5.1v-9.8h-3.6v-1.9c-.2,0,11.3-7.7,11.3-7.7l10.1,7.7v2.4Z"/>
        <polygon class="cls-1" points="39.3 25.4 39.3 27.8 36.8 27.8 36.8 37.1 31.6 37.1 31.6 29.3 26.5 29.3 26.7 37.1 21.4 37.1 21.4 27.3 17.8 27.3 17.6 25.4 29.1 17.7 39.3 25.4"/>
      </g>
    </g>
  </g>
</svg>