<?xml version="1.0" encoding="UTF-8"?>
<svg id="Calque_1" xmlns="http://www.w3.org/2000/svg" version="1.1" xmlns:xlink="http://www.w3.org/1999/xlink" viewBox="0 0 56.7 56.7">
  <!-- Generator: Adobe Illustrator 29.0.1, SVG Export Plug-In . SVG Version: 2.1.0 Build 192)  -->
  <defs>
    <style>
      .st0 {
        fill: #050000;
      }

      .st1 {
        fill: #fcfcfc;
      }

      .st2 {
        isolation: isolate;
      }

      .st3 {
        fill: #f8f7f7;
      }

      .st4 {
        display: none;
      }

      .st5 {
        fill: #f7f7f7;
      }
    </style>
  </defs>
  <g id="Calque_11" data-name="Calque_1" class="st4">
    <image class="st2" width="66" height="68" transform="translate(17.7 17) scale(.3)" xlink:href="logo_birthday-1.png"/>
  </g>
  <g id="Calque_2">
    <rect class="st0" x="19" y="19.9" width="19" height="17.3"/>
    <path class="st5" d="M23.2,34.3h.7v-4.2c.1-.1.3-.2.4-.3h8.3l.4.3v4.2h.7c.1-.2,0-2.1,0-4.2s.2-1-1-1c-1.7,0-3.4-.1-3.6,0v-1.9c0,0-1.3,0-1.3,0v1.9s-3.6,0-3.6,0c-1,0-1,.3-1,.9,0,1.4,0,2.8,0,4.3h0Z"/>
    <path class="st3" d="M23.8,30.7c.4-.2.7.5,1.1.5.5,0,1.2-.6,1.7-.4.4.1.8.5,1.2.5.5,0,1-.6,1.4-.5.4,0,.9.5,1.2.5.3,0,.5-.2.8-.4.7-.4,1.9.4,2,.9,0,.1-.1.2-.3.2-.3,0-.6-.4-1-.4-.5-.1-1.1.5-1.6.4-.4-.1-.8-.5-1.3-.4-.4,0-.8.4-1.1.5-.4.1-.9-.2-1.4-.4-.7-.3-1,.5-1.7.4-.6-.1-1.6-.6-1.3-1.2h0c0,0,0,0,0,0Z"/>
    <ellipse class="st3" cx="28.5" cy="25.7" rx=".5" ry=".8"/>
    <rect class="st3" x="20.1" y="23.2" width=".6" height="13"/>
    <rect class="st3" x="20.1" y="23.2" width="16.9" height=".6"/>
    <rect class="st3" x="36.4" y="23.3" width=".6" height="13"/>
    <rect class="st3" x="21.4" y="34.3" width="14.2" height=".7"/>
    <rect class="st3" x="20.1" y="35.6" width="16.9" height=".6"/>
    <path class="st1" d="M22.7,17.8h0c.7,0,1.2.6,1.2,1.4v1.9c0,.8-.6,1.4-1.2,1.4h0c-.7,0-1.2-.6-1.2-1.4v-1.9c0-.8.6-1.4,1.2-1.4Z"/>
    <path class="st1" d="M34.4,17.8h0c.7,0,1.2.6,1.2,1.4v1.9c0,.8-.6,1.4-1.2,1.4h0c-.7,0-1.2-.6-1.2-1.4v-1.9c0-.8.6-1.4,1.2-1.4Z"/>
    <path d="M22.6,18.1h0c.4,0,.6.3.6.6v2.3c0,.4-.3.6-.6.6h0c-.4,0-.6-.3-.6-.6v-2.3c0-.4.3-.6.6-.6Z"/>
    <path d="M34.4,18.1h0c.4,0,.6.3.6.6v2.3c0,.4-.3.6-.6.6h0c-.4,0-.6-.3-.6-.6v-2.3c0-.4.3-.6.6-.6Z"/>
  </g>
</svg>