<?xml version="1.0" encoding="UTF-8"?>
<svg xmlns="http://www.w3.org/2000/svg" version="1.1" viewBox="0 0 56.7 56.7">
  <defs>
    <style>
      .cls-1 {
        fill: #fff;
      }

      .cls-2 {
        fill: #353535;
      }
    </style>
  </defs>
  <!-- Generator: Adobe Illustrator 28.7.2, SVG Export Plug-In . SVG Version: 1.2.0 Build 154)  -->
  <g>
    <g id="Calque_1">
      <g id="Calque_2">
        <ellipse class="cls-2" cx="28.5" cy="28.2" rx="21" ry="20.8"/>
        <path class="cls-1" d="M33.1,31c1.6.1,3.5,1.5,4.5,2.8.3.4.3.9,0,1.5,0,1-1.3,1.6-2,2-.8.4-2.3-.2-3.2-.5-3.2-1.3-6.2-3.6-8.6-6.2-3.1-2.8-7-9.8-.8-11.1.6,0,1.3,1.4,1.8,1.9.8,1,2.4,2.7,1,3.9-1,1.2.1,2.5.9,3.5.5.6,1,1.2,1.6,1.9.9,1.1,3.5,1.3,4.5.5h.2v-.2Z"/>
      </g>
    </g>
  </g>
</svg>