<?xml version="1.0" encoding="UTF-8"?>
<svg id="Calque_1" xmlns="http://www.w3.org/2000/svg" version="1.1" xmlns:xlink="http://www.w3.org/1999/xlink" viewBox="0 0 56.7 56.7">
  <!-- Generator: Adobe Illustrator 29.0.1, SVG Export Plug-In . SVG Version: 2.1.0 Build 192)  -->
  <defs>
    <style>
      .st0 {
        fill: #f9f7f7;
      }

      .st1 {
        fill: #020202;
      }

      .st2 {
        isolation: isolate;
      }

      .st3 {
        display: none;
      }

      .st4 {
        fill: #fdfdfd;
      }
    </style>
  </defs>
  <g id="Calque_11" data-name="Calque_1" class="st3">
    <image class="st2" width="83" height="83" transform="translate(21 17.7) scale(.3)" xlink:href="logo_mail-1.png"/>
  </g>
  <g id="Calque_2">
    <circle cx="28.4" cy="28.5" r="21.3"/>
    <polygon class="st4" points="42 41.9 15 41.9 28 31.5 29.6 31.5 42 41.9"/>
    <polygon class="st4" points="42.6 24.5 42.6 41.9 42.4 41 42.4 41.1 32.4 33.2 41.5 26.1 41.4 25.1 29 15 27.8 15 15 24.5 15 25.7 25.2 32.8 14.2 41.3 14.1 41.9 14.2 24.5 27.9 14.3 29.1 14.3 42.6 24.5"/>
    <path class="st0" d="M31.6,28.7c.5.1-.4.6-1.3.9-3.2.7-7.4-.4-8.2-4.1-1.8-6.9,10-9.9,12-3.3.5,1.7,0,3.8-1.3,4.7-.9.6-2,.5-3.1.5-1.3-.1-3,.2-4-.6-1.1-1-.9-3,0-4.2,1.2-1.8,4.9-1.7,5,.2.1.8-.1,1.8,0,2.6.4,2,2.2.2,2.3-1,.6-2.4-1.5-4.2-3.9-4.4-3.8-.6-6.9,3-5,6.4,1.3,2.6,4.6,2.3,6.9,2.3h.6c0,0,0,0,0,0Z"/>
    <path class="st1" d="M28.3,22.4c-1.7-.3-3.5,2.9-1.6,3.9,2,.9,4.3-2.7,2.2-3.8h-.6Z"/>
  </g>
</svg>