<?xml version="1.0" encoding="UTF-8"?>
<svg id="Calque_1" xmlns="http://www.w3.org/2000/svg" version="1.1" xmlns:xlink="http://www.w3.org/1999/xlink" viewBox="0 0 56.7 56.7">
  <!-- Generator: Adobe Illustrator 29.0.1, SVG Export Plug-In . SVG Version: 2.1.0 Build 192)  -->
  <defs>
    <style>
      .st0 {
        fill: #050ff4;
      }

      .st1 {
        fill: #e30613;
      }

      .st2 {
        isolation: isolate;
      }

      .st3 {
        display: none;
      }

      .st4 {
        fill: #fefefe;
        stroke: #020202;
        stroke-miterlimit: 10;
        stroke-width: .2px;
      }
    </style>
  </defs>
  <g id="Calque_11" data-name="Calque_1" class="st3">
    <image class="st2" width="216" height="233" transform="translate(6.8 7.2) scale(.2)" xlink:href="logo_coreen-1.png"/>
  </g>
  <g id="Calque_2">
    <circle class="st4" cx="28.4" cy="28.5" r="21.3"/>
    <circle class="st0" cx="28.3" cy="28.5" r="8.4"/>
    <path class="st1" d="M31.6,26.4c.8.1,1.7.4,2.6,1.2,1.3,1.1,1.7,2.4,2.1,2.3.5,0,.4-2.5-.3-4.7-.9-2.8-3.3-5-6.6-5.3-3.5-.4-5.7,1-6.8,1.9-1,.8-2.2,2.8-2.4,4-.2,1.7,1.5,3.3,3.3,3.9,1.8.7,3.5-.3,4.5-1.3.5-.5.7-1,1.6-1.5.7-.4,1.4-.4,1.9-.6h0Z"/>
    <polygon points="11 21.6 12.2 22.7 16.9 15.7 15.5 14.8 11 21.6"/>
    <polygon points="12.7 22.8 17.4 16 18.6 16.7 14 23.7 12.7 22.8"/>
    <polygon points="14.6 24 19.1 17.2 20.3 18 15.6 24.7 14.6 24"/>
    <polygon points="36.9 18 37.7 17.2 39.8 20.1 38.9 20.9 36.9 18"/>
    <polygon points="39.4 21.7 40.3 21.1 42.4 24 41.5 24.7 39.4 21.7"/>
    <polygon points="38.4 16.7 43.2 23.6 44.4 22.9 39.5 16 38.4 16.7"/>
    <polygon points="40.3 15.5 41.3 14.8 43.3 17.8 42.3 18.5 40.3 15.5"/>
    <polygon points="42.9 19.4 43.9 18.7 45.9 21.6 44.9 22.4 42.9 19.4"/>
    <polygon points="41.4 32 42.4 32.8 40.4 35.9 39.4 35.1 41.4 32"/>
    <polygon points="38.8 36 39.8 36.8 37.7 39.9 36.7 39.1 38.8 36"/>
    <polygon points="43.2 33.2 44.2 34 42.2 37.1 41.2 36.3 43.2 33.2"/>
    <polygon points="40.6 37.1 41.6 37.8 39.5 40.9 38.5 40.1 40.6 37.1"/>
    <polygon points="44.9 34.4 46 35.2 43.9 38.2 42.9 37.4 44.9 34.4"/>
    <polygon points="42.3 38.3 43.3 39.1 41.2 42.2 40.2 41.3 42.3 38.3"/>
    <polygon points="14.6 32.8 15.6 32 20.1 38.8 19.2 39.6 14.6 32.8"/>
    <polygon points="11.2 35.1 12.2 34.3 16.7 41.1 15.8 41.9 11.2 35.1"/>
    <polygon points="13 34.1 13.9 33.4 15.8 36.2 14.8 36.9 13 34.1"/>
    <polygon points="15.6 37.9 16.5 37.3 18.4 40.1 17.5 40.8 15.6 37.9"/>
  </g>
</svg>