<?xml version="1.0" encoding="UTF-8"?>
<svg xmlns="http://www.w3.org/2000/svg" version="1.1" xmlns:xlink="http://www.w3.org/1999/xlink" viewBox="0 0 56.7 56.7">
  <!-- Generator: Adobe Illustrator 29.0.1, SVG Export Plug-In . SVG Version: 2.1.0 Build 192)  -->
  <defs>
    <style>
      .st0 {
        fill: #fff;
      }

      .st1 {
        fill: none;
      }

      .st2 {
        fill: #24387c;
      }

      .st3 {
        display: none;
      }

      .st4 {
        fill: #e6273c;
      }
    </style>
  </defs>
  <g id="Calque_1" class="st3">
    <image width="1280" height="675" transform="translate(7.2 14.4) scale(0)" xlink:href="../logo_france.webp"/>
  </g>
  <g id="Calque_2">
    <g>
      <path class="st2" d="M49,23.4v9.8c-1.6,6.9-6.6,12.5-13.1,15-2.3.9-4.9,1.4-7.6,1.4s-5.2-.5-7.5-1.4c-8-3-13.8-10.8-13.8-19.9s5.7-16.9,13.8-19.9c2.3-.9,4.9-1.4,7.5-1.4s5.2.5,7.6,1.4c6.5,2.5,11.5,8.1,13.1,15Z"/>
      <path class="st4" d="M49.6,28.7v-.7c0-1.6-.2-3.1-.6-4.6-1.6-6.9-6.6-12.5-13.1-14.9v39.8c6.5-2.5,11.5-8.1,13.1-15l.6-4.6Z"/>
      <path class="st0" d="M35.9,8.5v39.8c-2.3.9-4.9,1.4-7.6,1.4s-5.2-.5-7.5-1.4V8.5c2.3-.9,4.9-1.4,7.5-1.4s5.2.5,7.6,1.4Z"/>
      <path class="st1" d="M49.6,28.4c0,.1,0,.2,0,.4,0,1.6-.2,3.1-.6,4.6-1.6,6.9-6.6,12.5-13.1,15-2.3.9-4.9,1.4-7.6,1.4s-5.2-.5-7.5-1.4c-8-3-13.8-10.8-13.8-19.9s5.7-16.9,13.8-19.9c2.3-.9,4.9-1.4,7.5-1.4s5.2.5,7.6,1.4c6.5,2.5,11.5,8.1,13.1,15,.3,1.5.5,3,.6,4.6,0,.1,0,.2,0,.4Z"/>
    </g>
  </g>
</svg>