<?xml version="1.0" encoding="UTF-8"?>
<svg xmlns="http://www.w3.org/2000/svg" version="1.1" viewBox="0 0 56.7 56.7">
  <defs>
    <style>
      .cls-1 {
        fill: #353535;
      }

      .cls-2 {
        fill: #fefefe;
      }
    </style>
  </defs>
  <!-- Generator: Adobe Illustrator 28.7.2, SVG Export Plug-In . SVG Version: 1.2.0 Build 154)  -->
  <g>
    <g id="Calque_1">
      <g id="Voiture">
        <path class="cls-1" d="M28.3,7.2c-11.8,0-21.3,8.9-21.3,19.8s9.5,19.8,21.3,19.8,21.3-8.9,21.3-19.8S40,7.2,28.3,7.2ZM38.7,30c-1.4,0-2.5-1-2.5-2.3s1.1-2.3,2.5-2.3,2.5,1,2.5,2.3-1.1,2.3-2.5,2.3ZM17.1,30c-1.4,0-2.5-1-2.5-2.3s1.1-2.3,2.5-2.3,2.5,1,2.5,2.3-1.1,2.3-2.5,2.3ZM35.9,16.8l2.8,6.1h-21.6l2.8-6.1h16Z"/>
        <path class="cls-2" d="M43.8,34.9v-9.1l-2.8-2-4.3-8.1h-18l-3.6,7.3-3,2.5v8.9h2.3v3.3c0,.2,1.5,2,2.5,2,1.5,0,2.8-1.3,2.5-1.5v-3.5h17v3.3c-.5,0,1,1.8,2.3,1.8s2.5-1.3,2.3-1.5v-3.3h2.8ZM19.9,16.8h16l2.8,6.1h-21.6l2.8-6.1ZM17.1,30c-1.4,0-2.5-1-2.5-2.3s1.1-2.3,2.5-2.3,2.5,1,2.5,2.3-1.1,2.3-2.5,2.3ZM38.7,30c-1.4,0-2.5-1-2.5-2.3s1.1-2.3,2.5-2.3,2.5,1,2.5,2.3-1.1,2.3-2.5,2.3Z"/>
        <polygon class="cls-1" points="38.7 22.9 17.1 22.9 19.9 16.8 35.9 16.8 38.7 22.9"/>
        <path class="cls-1" d="M19.6,27.8c0,1.3-1.1,2.3-2.5,2.3s-2.5-1-2.5-2.3,1.1-2.3,2.5-2.3,2.5,1,2.5,2.3Z"/>
        <path class="cls-1" d="M41.2,27.8c0,1.3-1.1,2.3-2.5,2.3s-2.5-1-2.5-2.3,1.1-2.3,2.5-2.3,2.5,1,2.5,2.3Z"/>
      </g>
    </g>
  </g>
</svg>