<?xml version="1.0" encoding="UTF-8"?>
<svg id="Calque_1" xmlns="http://www.w3.org/2000/svg" version="1.1" xmlns:xlink="http://www.w3.org/1999/xlink" viewBox="0 0 56.7 56.7">
  <!-- Generator: Adobe Illustrator 29.0.1, SVG Export Plug-In . SVG Version: 2.1.0 Build 192)  -->
  <defs>
    <style>
      .st0 {
        fill: #ff292e;
      }

      .st1 {
        isolation: isolate;
      }

      .st2 {
        display: none;
      }

      .st3 {
        fill: #fcfefe;
      }

      .st4 {
        fill: #fc193b;
      }

      .st5 {
        fill: #fdfefe;
      }

      .st6 {
        fill: #f61e37;
      }

      .st7 {
        fill: #10296e;
      }
    </style>
  </defs>
  <g id="Calque_11" data-name="Calque_1" class="st2">
    <image class="st1" width="260" height="194" transform="translate(7 12.5) scale(.2)" xlink:href="logo_anglais-1.png"/>
  </g>
  <g id="Calque_2">
    <ellipse class="st7" cx="27.9" cy="28.2" rx="13.5" ry="14.1"/>
    <polygon class="st3" points="16.9 20 20.3 23.6 25.9 23.6 26 22.4 20.3 16.5 19.3 17.4 17.9 18.7 16.9 20"/>
    <polygon class="st0" points="23.7 23.2 18.8 18 18.3 18.4 17.9 18.9 21.6 23.1 23.7 23.2"/>
    <polygon class="st5" points="15.2 23.5 14.6 25.5 26.8 25.4 26.8 23.7 26.8 14.1 25.9 14.3 25.9 22.2 25.9 23.6 15.2 23.5"/>
    <polygon class="st5" points="30.4 22.3 35.7 16.7 37.4 18.3 38.9 20.1 36 23.6 30.4 23.6 30.4 22.3"/>
    <polygon class="st4" points="36.2 17.2 37.4 18.3 32.8 23.4 30.5 23.4 36.2 17.2"/>
    <polygon class="st5" points="29.4 14.1 30.4 14.3 30.4 23.6 40.6 23.6 40.9 24.3 41 25.3 41 25.4 29.5 25.4 29.4 14.1"/>
    <polygon class="st5" points="41.1 30.9 29.4 30.8 29.3 42.3 30.4 42.1 30.4 34 35.7 39.7 37.4 38.1 32.6 32.9 34.9 32.9 38.6 36.9 38.9 36.2 36 32.9 40.5 32.9 41.1 30.9"/>
    <polygon class="st6" points="26.8 14.1 29.4 14.1 29.5 25.2 41 25.2 41.1 25.2 41.3 27.1 41.3 29.5 41.1 30.9 29.4 30.8 29.3 42.3 26.7 42.3 26.7 30.7 14.6 30.8 14.4 28.2 14.5 26.7 14.6 25.4 26.8 25.2 26.8 14.1"/>
    <polygon class="st6" points="32.6 32.9 34.9 32.9 38.6 36.9 37.4 38.1 32.6 32.9"/>
    <path class="st5" d="M14.6,30.8h12.1c0,0,0,11.5,0,11.5l-1-.2v-8c0,0-5.3,5.9-5.3,5.9l-.7-.5,6-6.5h-2.3l-4.9,5.4c-.2-.2-.4-.4-.7-.7-.1-.1-.3-.3-.5-.6,0,0-.2-.2-.4-.6,1.1-1.1,2.2-2.2,3.2-3.3h-4.9c0,0-.7-2.3-.7-2.3h0Z"/>
    <polygon class="st6" points="18.5 38.3 23.4 32.9 25.8 32.9 19.7 39.4 19.1 38.9 18.5 38.3"/>
  </g>
</svg>